#define _width 17
#define _height 17
static char _bits[] = {
 0x00,0x00,0x00,0xfe,0xff,0x01,0x02,0x00,0x00,0xfa,0xff,0x00,0x0a,0x80,0x00,
 0xea,0xbf,0x00,0x2a,0xa0,0x00,0xaa,0xaf,0x00,0xaa,0xa8,0x00,0xaa,0xab,0x00,
 0x2a,0xa8,0x00,0xea,0xaf,0x00,0x0a,0xa0,0x00,0xfa,0xbf,0x00,0x02,0x80,0x00,
 0xfe,0xff,0x00,0x00,0x00,0x00 };
